<?xml version="1.0"?>
<svg xmlns="http://www.w3.org/2000/svg" height="925px" viewBox="0 0 829 925" width="829px" xmlns:xlink="http://www.w3.org/1999/xlink">
<rect rx="84" height="1017" width="820" stroke="#000" y="-96.5" x="4.5" stroke-width="9" fill="#e7e7e7"/>
<path d="m512.1 487.6c1.7 1.2 3.3 2.3 5 3.5-0.8 4.7-1.8 9.3-2.1 13.9-0.7 4.8 4.3 7.3 5.8 11.3 1.6 3.1-0.1 6.4-0.8 9.5 0.4 0.6 1 1.9 1.4 2.5 6.2-2.9 12.2-6.4 18.4-9.4-2.2 5.3-4.4 10.7-7.2 15.8-2.6 4.9-8.9 4.9-13.6 5.6-2.6-3.3-5.3-6.6-7.7-10 0.3-1.7 0.6-3.4 0.6-5.1-0.7-4.5-7.1-6.5-6.2-11.4 0.3-2.4 0.7-4.7 1.4-6.9 2.1-6.3 3.5-12.8 5-19.3zm-206.7-15.7c1 0.2 2.1 0.4 3.2 0.7 1.1 7.2-0.3 14.6 1 21.8 0.1 3.6 1.7 8.2-1.3 10.9-3.1 3.2-7.4 5.6-8.9 10-0.9 3.5-0.3 7.2 0 10.8 4.1-0.3 3.3-5 3.9-8 0.6-5.5 6.8-7.1 9.7-11.1 1.9-4.7 0.2-10.2 2-14.9 0.8-2.5 3.8-2.6 5.9-3.5 0.2 4 0.2 8-0.3 12-0.8 5.9-0.5 11.9-0.8 17.9-1.7 1-3.4 2-5.1 3 1.8 2.2 3.8 4.3 6.3 5.6-2.8 4.5-6.1 8.7-8.8 13.2-5.5 1.4-11.3 0.8-16.2-2.1-1.7 1.2-3.4 2.4-5 3.6-2.1-6.6-2.4-13.6-3.6-20.4-1.4-6.7-2.4-13.5-3.7-20.2-0.1-1.4-0.8-3.1 0.6-4 1.3-0.1 2.7-0.1 4.1 0 0.7 3.6 1.7 7.2 2.9 10.8 1.2-0.4 2.5-0.7 3.7-1-0.9-3.3-1.9-6.7-2.9-10 0.9-0.7 1.8-1.5 2.8-2.2 1.5 4.4 2.9 9 4.5 13.4 1.7-1.7 2.9-3.9 1.8-6.3-3.1-9-3.5-18.5-4.3-27.9 0.8 0 2.4 0.1 3.2 0.1 1.2 5.2 1.6 10.5 2.2 15.7 0 1.7 1.4 2.7 2.4 3.8 0.7-7.2-0.1-14.4 0.7-21.7zm84.8-59.4c-5.9-0.1-12.1 4.4-13.3 10.3-2.3 10.9-1.3 22.2-3.5 33.2 1.5 0.4 3 0.8 4.5 1.2 1 4.6 1.3 9.2 1.3 13.8 6.9 1.7 14.2 0.6 21.2 1.6 0.9-0.4 1.8-0.8 2.6-1.3 2.8 4.9 5.5 9.7 8.7 14.2 0.7-8.3-0.2-16.6 0.8-24.9 0.8-6.9 0.5-13.8 0.6-20.6 0-5-0.6-10.4-3.7-14.5-4.6-6-11.3-9.8-18-13h-1.2z" fill="#f2a772"/>
<path d="m432 60c1.3-7.2 13.8-2.17 15 1 0 4-3.9 8.19-5.9 11.99 1.8 1.06 3.5 1.12 5.3 2.19 2.4-3.65 2.8-8.52 6.6-11.18 3.6-2.05 12.8 3.75 10 7-2.2 4.01-4.5 6.5-5.9 9.98 2 0.97 3.9 1.95 5.8 2.94 1.2-4.21 2.9-7.61 6.1-10.92 4.7-2.76 13.6 3.01 10 7-4.9 5.45-9.1 10.42-13.9 15.97-11.9-6.39-24-12.59-35.9-18.98 0.7-4.95 2.1-12.04 2.8-16.99zm-99.9 38c4.1-3 9.4-2.71 14.1-1.2 2.9 0.91 7.9 2.04 6.9 6-1.8 5.4-5.8 9.5-9.5 13.7-1.7 2-3.2 4.6-2.2 7.3 3.5 6.9 10.4 10.9 16.2 15.7 4.6 5.1 10.4 9 15.1 14 4.1 4.2 8.3 8.3 12.3 12.5-12.5 9.1-25.2 18-37.8 27-0.2-6.5 0.7-13.2-1.4-19.4-1-6.3-2.8-12.6-6.1-18.1-2.7-6.2-6-12.4-10.8-17.2-1.5-1.2-3.3-3.1-5.3-2.1-5.2 2.3-7.3 8.2-12.2 10.9-3 2.1-7.1 0.5-9-2.3-2.2-3.6-5-7.3-4.3-11.8-0.4-2.8 1.6-5 3.2-7 6.1-0.3 12.2 0.4 18.3 0.9 0.2-0.7 0.5-2.2 0.7-2.9-5-3.6-10.4-6.4-15.1-10.2-1.2-5.8 3.9-9.8 8-12.8 2-1.52 5.2-3.06 7.4-1.45 2.7 4.35 1.6 10.15 4.7 14.35 1.5 1.5 3.2 3.7 5.7 3.1 2.5-0.2 2.3-3.3 2.8-5.2-0.5-4.6-2-9.1-1.7-13.8zm180.3 38.8c3.8 2.7 8.2 5.1 10.9 9.1 3.8 5.5 6.9 12.1 5.7 18.9-1.1 4-2.6 8.3-6 11-4.2 3.5-8.2 7.4-13.2 9.8-6.8 3.4-13.1 7.6-19.8 11.2-4.2 2.4-5.4 7.7-4.8 12.2 0.9 8.6 3.4 17.3 9 24.1-0.6-9.3 0.7-19.1 6.2-26.9 3.9-5.2 9.4-9.7 15.9-11.1 4.5-0.2 9.3-0.7 13.5 1.2 7.5 2.8 13.1 8.9 18.2 14.9 3.9 3.8 9 6.1 14.1 8.1-3.9 3.6-8.1 7.9-13.9 7.7-7.4 0.8-14.5-2.4-20.5-6.6-4.3-3.2-8.8-6.2-13.5-8.8-2.6 1.6-5.2 3.4-6.3 6.3-5.2 11.6-6 24.9-3.5 37.2 1.3-6.5 5.2-12.4 10.3-16.6 4.6-2.9 10.4-4.5 15.7-2.9 9.8 2 18.1 9.3 21.6 18.6 1.1 7.3-1.8 14.4-1.9 21.8 0 6.4 0.1 12.8 0 19.3-6.5-0.9-13.2-3.8-16.2-10-5.2-9-1.9-19.6-0.8-29.3 0.5-4.2 0.1-9.7-4.3-11.7-2.9-0.6-6.6-0.9-8.7 1.8-3.6 4.8-4.7 11-4.9 16.9 0.8 4.8 1.6 9.8 2.6 14.6 2.7 9.3 2.6 19 4.1 28.4h-24.6c-1.6-21.6-5.3-43.5-15.1-63-4.6-10.9-9.1-22.1-9.1-34 0-3.8 1.2-7.4 1.9-11.1 0.8-4.3 3.4-7.9 5.3-11.6 2.3-4.4 6.8-6.8 10.3-9.9 4.6-4.1 10.2-6.9 14-11.9 5.2-8.3 7-18.1 7.8-27.7zm-141.7 130.7c8-2.7 16.8-1.7 24.4 1.5 4.5 1.9 7.6 5.8 11.5 8.6 8.6 7.9 14 18.3 19.5 28.4-36.9-0.1-73.7 0.1-110.6-0.1 7.5-8.9 17.7-14.7 26.8-21.8 9.8-5 17.5-13.9 28.4-16.6zm53.6-185.4c10.2 5.33 20.3 10.85 30.6 16.07 2.7 1.48 6.3 2.85 6.7 6.35 2.4 13 4.5 26.2 3.3 39.4-0.7 5.5-1.4 10.9-2.5 16.3-1.5 9.8-5.1 19-7.6 28.4-3.4 8.5-6.3 17.3-7.6 26.4 0.1 7.1-1 14.4 1.6 21.2 1.6 7.4 5.5 14 8 21.1 2.4 6.6 6.7 12.3 9.2 18.9 4.2 10.7 11.9 19.6 17.4 29.6-16 0.4-32.1 0.1-48.1 0.2-2.5-7.1-6.4-13.6-9.7-20.4-4-7.4-9.2-14.2-13.7-21.3-7.9-10.3-17.2-19.5-27.2-27.8-3.5-2.7-6.6-7.2-11.5-6.5h-61.1c0.1 2.9-0.1 5.9 0.3 8.8 0.8 4.2 2.6 8 4.2 11.9-6.4 3.5-13.8 5.2-21.1 4.1-3.7-1.8-2.2-6.3-0.8-9.2 1.9-3.4 4.4-6.7 4.8-10.8-5.6-0.4-9.7 3.7-13.7 6.9-3.7 1.7-6.2-2.8-8-5.3-2.3-4.4-5.5-11-1.3-15.2 5.2-0.8 10.5 0.2 15.7 0.8 2.2 0.4 3.8-1.6 5.5-2.8-4.4-3.6-10-5-14.7-8.1-2.1-1.3-2.5-4.4-1.2-6.4 2.1-4.4 6.4-7.1 10.1-9.9 2.3-1.3 6-3.2 8.1-0.6 4.2 4.5 3.8 11 4.5 16.6 0.3 2.5 2 5.1 4.7 5.2 5.3-0.3 10.2-2.8 14.9-5.1 7.5-3 14.4-7.1 21.9-10.1 11-5.6 21.6-11.9 31-20 13.6-8.7 25.6-19.6 36.4-31.6 3.4-4.2 6.2-8.9 9.1-13.5-3.9 0.4-7.9 1.9-11.8 0.8-4.9-1.2-10-2.8-13.6-6.4-2-1.9-2.4-4.7-3.3-7.2 1.7-0.7 3.3-1.9 5.3-1.9 8.5-0.2 17 0.2 25.4-0.1-1.4-3.7-3.1-7.5-5.7-10.6-5.8-4.2-13.6-5.5-20.3-3-3.4 1.6-5.7-2.1-7-4.6-1.9-3.34-2.4-8.82 1.9-10.51 5.2-0.63 10.7 0.52 15.8-1.12 5.8-1.34 11-4.7 15.1-8.99" fill="#cab313"/>
<g fill="#1f1a17">
<path d="m423.2 96.16c4.2-0.14 8.5-0.44 12.7 0.02 5.1 2.03 8.3 7.42 8.5 12.82-5.5 0.4-11.5-0.8-15.7-4.7-2.7-1.9-3.9-5.27-5.5-8.14z"/>
<path d="m445.8 129.6c2.5 8.1 2 17 0.3 25.3-3.9-0.9-7.8-1.8-11.6-2.8 3.3-4.4 6.6-8.7 8.9-13.8 1.1-2.8 1.6-5.8 2.4-8.7z"/>
<path d="m456.4 129.4c3.9 9.3 4.9 19.8 2.6 29.6-2.5-0.7-5.1-1.3-7.6-1.9 1.4-3.9 3.5-7.7 4.1-11.8 1.3-5.2 0.3-10.6 0.9-15.9z"/>
<path d="m421 148c4.2-5.4 7.3-11.5 11.1-17.1 0.7 6.9-0.4 13.7-2.8 20.1-2.7-1-5.5-2-8.3-3z"/>
<path d="m406.2 167c5.4-3.7 10-8.4 12.8-14.3 0.8 6.3-0.4 12.5-2.8 18.3-3.4-1.3-6.7-2.6-10-4z"/>
<path d="m423.1 173.5c3.4-5.8 7.3-11.2 9.9-17.3 2.1 5.5 1.2 11.7-0.7 17.1-1.3 4.6-6.3 0.8-9.2 0.2z"/>
<path d="m438.3 179.1c4.2-5.4 6.7-11.6 9.6-17.7 0.4 7.2 0.8 14.5-1 21.5-2.8-1.3-5.7-2.5-8.6-3.8z"/>
<path d="m396.6 179.5c2.6-2.7 4.1-6.1 6.4-8.9 0.6 7.3 0.2 15.7-5.1 21.3-3.6-1.6-7.2-3.2-10.7-5 2.8-2.9 6.3-4.9 9.4-7.4z"/>
<path d="m410.1 187c2.6-3.1 4.5-6.6 7-9.8 0.9 7.8-0.6 15.7-4.1 22.7-3.6-1.6-7.3-3.2-10.8-4.9 2.6-2.7 5.4-5.2 7.9-8z"/>
<path d="m426 194.9c2.4-3.9 3.9-8.3 5.9-12.4 2.9 8.5-0.2 17.6-3.7 25.5-3-1.6-5.9-3.2-8.9-4.9 2.1-2.9 4.4-5.5 6.7-8.2z"/>
<path d="m434.5 210.2c5.6-5.3 8.5-12.5 10.6-19.7 0.1 8.2 0.9 16.6-2.2 24.4-2.8-1.6-5.6-3.2-8.4-4.7z"/>
<path d="m275.4 360.3c4.4-1.3 9.1 1 12.5 3.8 2.4 2.7 3.7 6.3 4.1 9.9-0.5 4.4-2.9 8.7-6.5 11.4-3.6 2.2-8.2 2.1-12.1 1.1-3.5-1.9-6.7-4.9-8.1-8.6-0.7-4-0.9-8.6 1.8-11.9 2.2-2.6 5.1-4.5 8.3-5.7z"/>
<path d="m402.8 410.7c4.6-1.3 9.4-0.5 14.2-0.7 12-0.4 24.1 3.2 34.2 9.9 4.3 3.2 8.9 6.4 11.6 11.3 4.2 4.7 5.9 10.9 8.5 16.5 2.7 7.1 4.3 14.7 3.7 22.3h-31.1c4.9 13.5 13 25.4 18.7 38.6 3.1 6.9 9.7 11.6 16.7 14.1 8.9 4.2 19.2 5.6 28.9 3.5 1 1.4 2 2.7 3 4.1 2.5 3.4 5.2 6.7 7.8 10v246.7c-7.7 0.9-15.2-1.5-22-5.1-4.9-3.3-9.5-7.6-11.5-13.4-0.7-3.1-1.5-6.2-1.5-9.4v-149.1c0.7-11.5-4.1-22.5-9.7-32.2-1.4-4.5-5.7-6.9-8.3-10.6-0.1 72.3 0 144.5 0 216.8h-100v-216.9c-4.2 5.9-9.4 11.2-12 18-4.3 8.9-6.4 19-6 28.9v147.1c-0.2 6.3-2.6 13.2-8.1 16.8-5.7 4.2-11.7 8.4-18.9 9.1-3 0.1-6 0-9 0v-180c0.1-22.2-0.2-44.5 0.2-66.7 2.7-4.5 6-8.7 8.8-13.2 6.7-0.6 13.5 0.9 20-1.2 5.4-1.3 10.1-4.3 14.8-7 6-3.5 10.6-8.9 14.8-14.3 2.2-2.5 4.8-4.7 6.4-7.7 1.6-2.9 4.5-4.9 6-7.9 2.1-3.8 4.3-7.6 7.4-10.7 1.9-1.4 4.2-2.3 6.4-3.4 3.8 5.2 6.8 11.5 12.6 14.7 2.6 1.5 5.6 1 8.3 0.3 0.6-3.9 1.4-7.8 1.3-11.9v-45c-0.5-9.4-7.5-16.9-15.2-21.5l-1-0.8"/>
</g>
<path d="m425 504c-5.1 0.6-10.3 1.7-15.4 0.5-9.3-1.1-18.6-3.4-26.8-8-1.2 2-2.4 4-3.6 6 9.9 6.1 21.4 8.7 32.8 9.7v103.8h-42v8h42v156h8v-156h42v-8h-42v-103.8c7.7-0.8 15.3-2.2 22.7-4.6 3.9-1.5 7.5-3.7 11.3-5.3-1-2.4-1.9-4.7-2.9-7.1-8 4.6-16.7 8.6-26.1 8.8z" fill="#cab313"/>
<path d="m391.4 412.5c4.1-0.3 8.3-2 12.4-1 7.7 4.6 14.7 12.1 15.2 21.5v45c0.1 4-0.7 8-1.3 11.9-2.7 0.7-5.7 1.2-8.3-0.3-5.8-3.2-8.8-9.5-12.6-14.7 1.2-0.8 2.4-1.6 3.6-2.3 0.9-0.4 1.7-0.8 2.6-1.3 2.8 4.9 5.5 9.7 8.7 14.2 0.7-8.3-0.2-16.6 0.8-24.9 0.8-6.9 0.5-13.8 0.6-20.6 0-5-0.5-10.4-3.7-14.5-4.6-6-11.3-9.8-18-13z" fill="#cab313"/>
<path d="m367.3 97.26c2.9-4.02 7.9-5.54 12.3-7.07-0.8 4.95-3 9.74-2.5 14.81-0.2 2 1.2 3.3 2.3 4.7 1.8 2.4 5 2.3 7.5 3.4 3.7 1.3 6.5 4.2 9.9 6.1-8.9 5.3-20.1 2.5-28.4-2.5-2.8-1.3-4-4.2-5-6.9-1.2-4.6 1.3-9 3.9-12.54z" fill="#da121a"/>
<path d="m494 483c11.6-6.3 23.3-12.7 35-19 8.7 15.7 17.4 31.4 26 47-5.1 2.6-10 5.4-15.2 7.9-6.2 3-12.2 6.5-18.4 9.5-0.4-0.7-1-2-1.4-2.6 0.7-3.1 2.4-6.4 0.8-9.5-1.5-4-6.5-6.5-5.8-11.3 0.3-4.6 1.4-9.2 2.1-13.9-1.7-1.2-3.3-2.3-5-3.5-1.5 6.5-2.9 13-5 19.3-4.9-7.6-8.7-16-13.1-23.9z" fill="#da251d"/>
<g fill="#1f1a17">
<path d="m396 420.5 4 3.5v5.4l-4-3.4z"/>
<path d="m390 420.5 4 3.6v5.3l-4-3.4z"/>
<path d="m384 420.5 3.9 3.6 0.1 5.3-4-3.4z"/>
<path d="m378 420.5 4 3.5v5.4l-4-3.4z"/>
<path d="m389 435.6c3.8-0.2 5.8 2.5 7.2 5.2-2.2 1-4.2 2.3-6.4 3.1-3.2 0.6-5.8-1.9-8.3-3.3 1.1-2.7 3.7-4.8 7.5-5z"/>
</g>
<g id="a">
<path fill="#da121a" d="m68 231h32v41h48v-41h29v41h47v-41h35v72h-191zm41 0h30v32h-30zm77 0h29v32h-29zm-83 81v416h108v-416zm0 428h108v90h-108z"/>
<g fill="#1f1a17">
<path d="m137 99c1.7-0.01 3.3 0 5 0l18 18c6.4-6 12.6-12 19-18 1.3-0.01 2.7-0.01 4 0 4 4 8.1 8 12 12 1.5 1.4 2.3 3.2 2.8 5.2 1.2 7.2 3 14.4 4 21.7-5.9-5.7-11.9-11.3-17.8-16.9-8.1 7.3-16 14.7-24 22-7.6-7.4-15.3-14.7-23-22-4.5 4.1-8.9 8.4-13.6 12.4l-1.1 1c0.5-5.1 1.7-10.1 2.6-15.1 0.9-3.2 1.2-6.7 2.7-9.7 2.7-3.8 6.3-7.1 9.4-10.6z"/>
<path d="m120 160c5.6-5.7 11.3-11.3 17-17 7.7 7.3 15.3 14.7 23 22 7.7-7.3 15.3-14.7 23-22 7.6 7.4 15.4 14.6 22.9 22 1.6 8.1 3 16.2 3.9 24.4l-1.2-1c-7.4-6.5-14.3-13.6-21.6-20.4-9 8.3-18 16.7-27 25-9-8.3-18-16.7-27-25-6.6 6.4-13.6 12.4-19.8 19.1 0.9-7 2.5-13.9 3.8-20.9 0.5-2.3 1.2-4.6 3-6.2z"/>
<path d="m108.8 215.1c8.1-7.6 16.1-15.4 24.2-23.1 9 8.6 18 17.3 27 26 9-8.7 18-17.4 27-26 9.3 9 18.8 17.9 28 27.1 0.5 1.5 0.8 3.2 1.1 4.8-6.8 0.1-13.6 0.2-20.5 0-2.8-2.7-5.7-5.3-8.6-7.9-2.7 2.7-5.3 5.4-8 8-12.5-0.1-24.9 0.1-37.4-0.1-2.8-2.7-5.7-5.3-8.6-7.9-2.7 2.7-5.3 5.4-8 8h-18.1c0.6-2.9 0.2-6.3 1.9-8.9z"/>
<path d="m165 358h18v71h-18v-71zm-34 0h18v71h-18v-71z"/>
</g>
<g fill="#cab313">
<path d="m128 99.03c3-0.02 6-0.03 9-0.03-3.1 3.5-6.7 6.8-9.4 10.6-1.5 3-1.8 6.5-2.6 9.7 0.4-6.9 1.9-13.5 3-20.27z"/>
<path d="m142 99h37c-6.4 6-12.6 12-19 18l-18-18z"/>
<path d="m183 99c4-0.01 8 0 12 0.04 0.9 5.66 2 11.36 2.8 17.16-0.5-2-1.3-3.8-2.8-5.2-3.9-4-8-8-12-12z"/>
<path d="m123.4 133.4c4.7-4 9.1-8.3 13.6-12.4 7.7 7.3 15.4 14.6 23 22 8-7.3 16-14.7 24-22 6 5.6 12 11.2 17.8 16.9 0.9 9.1 3.1 18 4.1 27.1-7.5-7.4-15.3-14.6-22.9-22-7.7 7.3-15.3 14.7-23 22-7.7-7.3-15.3-14.7-23-22-5.7 5.7-11.4 11.3-17 17-1.8 1.6-2.5 3.9-3 6.2 0.9-9 2.9-17.9 4.2-26.8 0.5-2.1 0.3-4.7 2.2-6z"/>
<path d="m113.2 187.1c6.2-6.7 13.2-12.7 19.8-19.1 9 8.3 18 16.7 27 25 9-8.3 18-16.7 27-25 7.3 6.8 14.2 13.9 21.6 20.4 2.2 1.4 2 4.2 2.5 6.4 1.2 8.1 2.9 16.1 3.9 24.3-9.2-9.2-18.7-18.1-28-27.1-9 8.6-18 17.3-27 26-9-8.7-18-17.4-27-26-8.1 7.7-16.1 15.5-24.2 23.1 1-9.4 2.9-18.7 4.4-28z"/>
<path d="m125 224c2.7-2.6 5.3-5.3 8-8 2.9 2.6 5.8 5.2 8.6 7.9-5.5 0.2-11.1 0.1-16.6 0.1z"/>
<path d="m179 224c2.7-2.6 5.3-5.3 8-8 2.9 2.6 5.8 5.2 8.6 7.9-5.5 0.2-11.1 0.1-16.6 0.1z"/>
</g>
<path d="m414.5 362.2c-52.5 21-99.1 54.3-135.7 97.6-16.5 19.4-19.8 45.3-19.8 70v300.2h-37v-518h194" fill="#da121a"/>
<circle cy="373.6" cx="278" r="13.5" fill="#1f1a17"/>
<circle cy="68" cx="132" r="14" fill="#cab313"/>
<circle cy="68" cx="192" r="14" fill="#cab313"/>
<path d="m379.4 789h17.6v21.9c-6.9 4.7-14.8 7.7-21.2 12.9-4.2 3.5-8.3 7.2-13 9.9-2.4 1.5-5.5 3.5-8.2 1.7-2.5-1-1.5-4.2-1.6-6.3 1.2-6.1 3.9-12.3 8.9-16.2 4-3.9 8.5-7.6 11.6-12.3 2.1-3.8 4.6-7.5 5.9-11.6z" fill="#da251d"/>
</g>
<path stroke="#000" stroke-width="9" d="m0 4.5h829" fill="none"/>
<use xlink:href="#a" transform="matrix(-1,0,0,1,829,0)"/>
</svg>
